<?xml version="1.0" standalone="no"?>
<!DOCTYPE svg PUBLIC "-//W3C//DTD SVG 20010904//EN"
 "http://www.w3.org/TR/2001/REC-SVG-20010904/DTD/svg10.dtd">
<svg version="1.0" xmlns="http://www.w3.org/2000/svg"
 width="1161.000000pt" height="179.000000pt" viewBox="0 0 1161.000000 179.000000"
 preserveAspectRatio="xMidYMid meet">

<g transform="translate(0.000000,179.000000) scale(0.100000,-0.100000)"
fill="#000000" stroke="none">
<path d="M210 910 l0 -750 715 0 715 0 0 750 0 750 -715 0 -715 0 0 -750z
m663 473 c-3 -27 -17 -75 -30 -108 -13 -33 -27 -81 -30 -106 -5 -41 -10 -49
-42 -67 -51 -29 -66 -48 -89 -112 -11 -30 -23 -63 -27 -72 -4 -11 -2 -16 9
-14 8 1 19 6 23 11 4 4 2 5 -4 1 -7 -4 -13 -5 -13 -3 0 14 111 77 145 83 l40
6 -60 -62 c-33 -35 -49 -56 -35 -46 13 9 36 16 50 15 22 0 21 -2 -10 -12 -19
-7 -34 -16 -33 -22 1 -5 -5 -17 -13 -27 -10 -11 -12 -18 -5 -23 27 -16 5 -109
-29 -120 -11 -3 -17 -11 -14 -17 4 -7 2 -8 -5 -4 -6 4 -9 11 -7 14 2 4 -5 19
-16 32 l-20 25 6 -34 c6 -34 6 -34 -14 -16 -17 16 -20 16 -20 2 0 -15 14 -29
35 -34 6 -1 46 -16 90 -33 87 -34 134 -36 181 -5 28 18 64 72 63 95 0 8 -7 -1
-15 -20 -8 -20 -24 -41 -35 -48 l-20 -13 20 28 c12 15 22 45 23 65 3 36 11 48
21 31 2 -5 3 -3 1 4 -1 6 3 19 10 28 10 14 17 15 34 6 27 -14 33 -14 26 2 -11
30 97 82 111 53 6 -13 -1 67 -9 104 -4 14 3 5 15 -19 44 -91 21 -230 -49 -304
-37 -40 -107 -87 -161 -109 l-46 -19 38 5 c21 3 52 12 69 20 17 9 34 13 39 10
5 -3 8 0 7 7 -2 6 3 14 11 17 9 3 11 0 6 -9 -5 -8 -4 -11 1 -6 5 5 9 12 10 15
0 4 24 31 52 61 28 30 49 58 46 62 -6 10 13 97 27 121 5 10 9 27 9 38 0 11 4
20 9 20 15 0 23 -55 16 -107 -10 -69 -16 -88 -24 -74 -5 7 -15 -4 -26 -29 -36
-79 -141 -149 -255 -169 l-55 -10 65 3 c100 5 185 56 242 145 34 55 37 44 3
-14 -59 -101 -211 -167 -338 -147 -53 8 -55 8 -72 -20 -13 -23 -14 -32 -5 -43
7 -8 19 -15 26 -15 8 0 23 -9 34 -20 15 -15 20 -16 20 -5 0 8 9 19 19 25 31
16 33 12 9 -20 -16 -22 -19 -33 -11 -41 9 -9 19 -6 39 10 30 24 54 27 72 9 21
-21 13 -32 -8 -13 -20 18 -21 18 -47 -1 -28 -21 -35 -31 -53 -82 -14 -37 -52
-68 -96 -77 -23 -5 -21 -3 12 13 69 33 102 94 71 132 -12 15 -65 43 -100 54
-27 8 -32 36 -14 69 16 27 15 53 -2 42 -5 -2 -16 -21 -26 -41 -12 -26 -20 -33
-28 -25 -7 7 -8 20 -1 38 9 27 7 28 -57 59 -71 34 -129 85 -155 137 -15 27 -8
23 49 -30 61 -56 174 -123 208 -123 8 0 -7 11 -33 24 -68 33 -113 71 -149 124
-28 41 -29 44 -8 27 27 -22 65 -45 76 -45 11 0 -13 21 -38 34 -32 15 -67 71
-81 124 -7 30 -13 40 -19 30 -11 -17 -10 101 1 127 5 12 9 14 9 6 1 -8 21 26
45 75 44 91 80 131 186 208 25 18 44 38 42 45 -1 6 3 10 9 9 6 -2 14 4 19 12
13 24 38 84 44 103 10 33 16 17 9 -30z m93 -64 c14 -29 27 -60 29 -71 5 -23
65 -101 73 -94 6 6 66 -90 76 -122 4 -12 1 -26 -8 -35 -8 -8 -12 -17 -9 -21 6
-5 -39 -26 -57 -26 -18 0 -110 99 -125 137 -32 74 -43 245 -15 228 13 -8 19
18 8 38 -5 9 -6 17 -4 17 3 0 17 -23 32 -51z m106 -75 c3 -27 15 -55 39 -85
46 -59 69 -105 27 -54 -60 73 -91 103 -78 78 6 -13 9 -23 7 -23 -12 0 -59 74
-63 98 -5 26 -4 25 30 -13 l34 -40 -5 45 c-3 25 -3 43 0 40 3 -3 7 -24 9 -46z
m-312 21 c0 -2 -24 -20 -52 -38 -101 -65 -182 -169 -218 -281 -13 -41 -16
-139 -5 -179 6 -21 5 -21 -9 -4 -36 45 -25 171 23 266 30 58 114 144 189 195
71 48 72 49 72 41z m190 -270 c33 -17 37 -29 18 -49 -10 -11 -19 -9 -50 11
-47 32 -56 53 -22 53 14 0 38 -7 54 -15z m-25 -116 c20 -18 40 -41 46 -53 6
-11 -4 -4 -23 16 -18 21 -49 44 -68 52 -27 12 -30 15 -13 16 12 0 38 -14 58
-31z m302 -36 c-3 -10 -5 -2 -5 17 0 19 2 27 5 18 2 -10 2 -26 0 -35z m-429
-159 c-15 -16 -33 -24 -44 -22 -17 4 -16 6 6 15 14 6 32 18 39 27 8 9 16 14
19 11 3 -3 -6 -17 -20 -31z m246 -285 c20 -16 30 -19 39 -10 19 19 65 13 81
-11 19 -27 20 -38 4 -38 -6 0 -8 3 -5 7 10 10 -23 43 -43 43 -9 0 -25 -9 -35
-20 -20 -22 -8 -28 15 -7 8 6 7 3 -3 -9 -9 -11 -17 -27 -18 -35 -1 -8 -7 4
-13 26 -9 29 -21 45 -47 57 -19 10 -27 18 -18 18 9 0 28 -10 43 -21z m-225
-49 c20 -1 57 -28 48 -36 -3 -3 -16 1 -29 10 -12 9 -30 16 -39 16 -19 0 -69
37 -69 50 0 5 16 -2 36 -15 20 -14 44 -25 53 -25z m206 -118 c-4 -24 -9 -31
-15 -23 -8 13 -7 23 6 76 7 28 8 29 12 6 2 -13 1 -40 -3 -59z m-160 22 c-49
-76 -202 -70 -257 10 l-21 31 29 -26 c43 -40 88 -59 135 -59 38 0 48 5 83 44
42 46 61 45 31 0z m188 -39 c-3 -9 -8 -14 -10 -11 -3 3 -2 9 2 15 9 16 15 13
8 -4z"/>
<path d="M512 910 c0 -14 2 -19 5 -12 2 6 2 18 0 25 -3 6 -5 1 -5 -13z"/>
<path d="M645 859 c-4 -6 -5 -12 -2 -15 2 -3 7 2 10 11 7 17 1 20 -8 4z"/>
<path d="M1182 825 c0 -16 2 -22 5 -12 2 9 2 23 0 30 -3 6 -5 -1 -5 -18z"/>
<path d="M1129 593 c-13 -16 -12 -17 4 -4 16 13 21 21 13 21 -2 0 -10 -8 -17
-17z"/>
<path d="M1025 1227 c10 -15 20 -25 23 -22 3 3 -5 16 -17 28 l-23 22 17 -28z"/>
<path d="M7234 1580 c-34 -22 -67 -65 -147 -196 -64 -103 -127 -167 -160 -162
-20 3 -22 9 -21 61 1 31 -2 57 -6 57 -26 0 -28 -120 -2 -143 61 -55 143 12
272 223 108 174 124 171 115 -20 -6 -124 -6 -126 -46 -192 -105 -173 -229
-603 -229 -790 0 -79 11 -103 47 -96 32 6 63 71 124 262 34 105 67 197 75 205
12 13 17 12 40 -10 22 -20 35 -24 92 -24 112 0 229 58 332 165 148 154 200
363 126 508 -37 73 -88 105 -177 110 -59 4 -76 0 -131 -25 -35 -17 -86 -51
-114 -76 -29 -26 -54 -47 -57 -47 -2 0 -7 32 -10 71 -10 121 -54 164 -123 119z
m491 -120 c48 -46 59 -86 53 -192 -5 -76 -11 -100 -41 -162 -41 -83 -134 -189
-204 -234 -52 -33 -134 -56 -170 -48 -46 12 -38 82 21 176 56 88 78 131 71
138 -7 7 -77 -64 -128 -128 l-27 -35 6 50 c3 28 14 102 25 165 23 135 42 168
138 242 72 55 108 68 174 64 39 -3 55 -10 82 -36z m-495 -471 c-37 -167 -165
-606 -181 -623 -28 -30 10 240 62 433 35 133 64 208 104 271 38 59 41 39 15
-81z"/>
<path d="M2545 1571 c-54 -24 -120 -98 -156 -174 -16 -34 -29 -67 -29 -74 0
-7 -42 -57 -93 -111 -51 -55 -116 -134 -145 -175 -64 -92 -146 -262 -167 -342
-27 -105 -16 -225 20 -225 25 0 29 27 10 72 -36 92 20 278 138 453 42 62 177
205 194 205 6 0 13 -33 16 -72 8 -87 28 -148 96 -290 33 -68 51 -118 49 -135
-2 -22 -26 -42 -131 -112 -206 -139 -317 -259 -317 -346 0 -64 24 -80 119 -80
67 0 85 4 146 34 134 66 264 233 280 359 14 115 10 107 94 167 44 30 82 55 85
55 3 0 6 -12 6 -26 0 -83 111 -124 192 -69 48 32 88 113 88 178 l0 48 26 -20
c16 -13 41 -21 64 -21 l37 0 -18 -38 c-11 -21 -24 -63 -31 -93 -20 -98 29
-163 121 -162 61 1 95 19 161 87 30 31 60 56 68 56 29 0 90 41 143 96 31 33
58 65 60 73 4 11 9 11 26 2 29 -15 67 -14 108 3 19 8 35 12 35 7 0 -4 -11 -30
-25 -58 -64 -133 -93 -295 -65 -363 16 -38 55 -70 87 -70 50 0 183 165 226
281 12 31 27 39 27 15 0 -27 52 -58 88 -52 71 11 128 71 219 232 l22 39 0 -35
c1 -48 -34 -192 -58 -238 -10 -20 -53 -84 -95 -141 -93 -127 -129 -189 -152
-264 -17 -56 -17 -58 3 -85 27 -36 55 -39 107 -8 75 44 134 158 197 388 17 62
40 129 50 149 18 37 152 167 155 152 2 -4 5 -30 9 -57 15 -113 109 -140 198
-58 l27 26 0 -47 c0 -36 5 -49 22 -61 64 -45 154 8 241 139 l39 60 -5 -88 c-9
-133 10 -160 80 -117 27 16 53 62 156 272 123 249 160 308 173 275 6 -16 -6
-76 -75 -399 -44 -199 -50 -272 -26 -317 16 -31 33 -41 73 -41 32 0 96 65 158
160 60 94 164 295 164 320 0 42 -21 17 -71 -82 -84 -169 -214 -348 -240 -332
-11 6 -9 15 52 232 65 233 82 319 77 404 -3 62 -7 73 -31 94 -53 45 -106 23
-165 -66 -22 -34 -77 -140 -123 -236 -46 -96 -88 -173 -94 -171 -5 2 -12 41
-15 87 -4 62 -9 86 -21 93 -26 16 -43 3 -85 -69 -45 -77 -115 -159 -153 -179
-64 -33 -78 26 -37 161 25 82 23 97 -15 107 -15 4 -23 -1 -30 -20 -64 -170
-92 -213 -138 -213 -35 0 -41 13 -41 88 0 104 64 192 140 192 22 0 51 -5 65
-12 56 -25 58 39 2 68 -82 43 -227 -19 -278 -118 -8 -14 -50 -58 -94 -98 l-80
-71 -3 78 c-3 108 -8 123 -36 123 -26 0 -47 -24 -118 -140 -54 -87 -89 -123
-115 -118 -28 5 -28 71 1 163 27 85 23 115 -15 115 -36 0 -76 -52 -100 -131
-44 -146 -171 -364 -231 -395 -29 -15 -33 -15 -43 0 -23 30 8 148 107 414 23
62 23 64 4 78 -26 18 -60 18 -114 -3 -59 -22 -69 -8 -32 47 77 114 69 222 -16
250 -28 10 -40 9 -71 -7 -61 -30 -78 -63 -78 -151 0 -51 6 -93 18 -124 l18
-47 -33 -42 c-41 -51 -115 -109 -139 -109 -16 0 -19 8 -19 48 -1 69 -31 129
-76 148 -49 20 -83 15 -107 -18 -19 -25 -19 -32 -8 -81 8 -36 24 -68 46 -95
19 -22 35 -44 35 -49 0 -22 -60 -65 -98 -70 -35 -5 -44 -1 -67 22 -36 35 -30
72 26 182 24 46 39 86 35 90 -4 4 -26 -3 -50 -16 -61 -34 -124 -26 -174 22
-52 49 -77 60 -92 42 -7 -8 -24 -15 -39 -15 -30 0 -98 -63 -124 -116 -17 -32
-60 -65 -145 -108 l-53 -27 -34 73 c-19 40 -59 118 -89 173 -63 115 -81 176
-71 243 6 44 15 55 141 177 85 83 134 138 134 151 0 46 -47 56 -115 25z m55
-40 c-11 -22 -142 -142 -148 -137 -8 9 28 63 65 97 58 55 103 77 83 40z m1200
-346 c20 -24 7 -108 -24 -155 -15 -22 -31 -38 -36 -35 -17 10 -32 88 -25 129
10 66 55 97 85 61z m-836 -251 c10 -37 -11 -126 -37 -166 -25 -36 -67 -48 -94
-27 -20 17 -13 89 13 125 11 15 26 39 35 53 13 21 36 35 70 40 4 1 10 -11 13
-25z m414 -10 c18 -13 22 -25 22 -74 0 -87 -29 -90 -71 -9 -22 44 -24 70 -7
87 16 16 29 15 56 -4z m-891 -343 c-20 -153 -215 -351 -345 -351 -91 0 -80 56
31 166 73 71 284 224 310 224 5 0 7 -17 4 -39z m1823 -118 c-45 -134 -121
-263 -156 -263 -19 0 -18 20 6 81 30 75 155 267 167 255 3 -2 -5 -35 -17 -73z"/>
<path d="M9604 1498 c-17 -18 -44 -54 -59 -81 l-27 -47 -102 6 c-93 5 -105 4
-146 -18 -49 -26 -70 -56 -29 -44 67 22 119 28 169 22 87 -11 86 -10 52 -118
-17 -51 -40 -145 -52 -208 -18 -97 -30 -131 -76 -218 -60 -115 -119 -206 -172
-264 -67 -74 -68 -45 -6 169 80 278 100 392 83 473 -12 56 -37 80 -83 80 -55
0 -107 -70 -217 -296 -55 -111 -104 -206 -109 -209 -6 -4 -10 19 -10 58 0 86
-9 125 -30 132 -25 8 -48 -4 -56 -28 -10 -33 -87 -136 -137 -185 -58 -57 -107
-67 -133 -27 -17 26 -17 32 -2 124 18 101 14 121 -23 121 -13 0 -25 -13 -36
-37 -53 -115 -154 -227 -201 -221 -24 3 -27 8 -30 43 -1 22 8 76 22 120 25 84
23 99 -17 107 -14 2 -26 -16 -57 -91 -44 -106 -71 -141 -111 -141 -33 0 -39
14 -39 88 0 104 64 192 140 192 22 0 51 -5 65 -12 56 -25 58 39 2 68 -22 12
-46 15 -83 11 -156 -16 -255 -159 -214 -309 25 -89 127 -104 195 -28 l20 22 5
-48 c4 -39 10 -51 31 -63 56 -31 135 10 205 107 l39 53 6 -58 c9 -96 44 -132
117 -118 65 12 144 81 213 185 14 22 15 18 11 -68 -5 -97 3 -122 39 -122 45 0
84 57 184 267 102 216 157 313 176 313 18 0 6 -81 -52 -340 -62 -279 -68 -364
-30 -404 17 -18 35 -26 57 -26 53 0 134 100 251 308 l30 54 6 -94 c10 -157 46
-224 125 -235 78 -10 182 67 256 190 l35 59 15 -36 c46 -111 198 -47 316 133
14 21 15 15 11 -69 -3 -97 5 -120 42 -120 42 0 90 71 190 285 97 207 140 284
165 293 19 6 15 -34 -24 -215 -19 -93 -46 -222 -60 -288 -30 -140 -28 -203 6
-240 66 -71 165 21 302 281 l49 94 26 -30 c20 -24 33 -30 64 -30 22 0 53 7 69
15 35 18 43 8 34 -42 -5 -28 -26 -59 -81 -118 -105 -113 -203 -266 -203 -316
0 -18 41 -49 65 -49 66 0 167 89 211 185 14 29 33 95 42 147 10 51 22 100 28
109 12 22 158 189 164 189 3 0 15 -15 27 -33 11 -17 35 -51 52 -73 l31 -42
-35 -42 c-66 -79 -88 -127 -88 -189 0 -131 94 -194 211 -141 86 39 104 154 47
305 -15 39 -29 77 -32 86 -3 12 18 33 76 75 45 31 81 61 81 66 0 21 -44 3
-101 -42 -35 -27 -69 -50 -75 -50 -28 0 -114 150 -114 198 0 31 17 62 35 62 8
0 20 -9 29 -21 l14 -21 11 20 c37 70 -48 119 -130 76 -42 -21 -61 -72 -57
-151 l3 -63 -64 -65 c-34 -36 -68 -65 -73 -65 -11 0 -8 48 10 213 5 37 6 71 3
76 -4 5 -19 9 -36 9 -16 0 -45 4 -62 7 -43 9 -75 1 -113 -31 -37 -32 -65 -84
-75 -141 -13 -82 -201 -384 -256 -414 -21 -11 -22 -10 -16 32 4 24 26 115 51
201 59 205 76 291 76 378 0 102 -23 140 -86 140 -58 0 -142 -121 -250 -361
-26 -59 -56 -118 -65 -130 l-19 -24 0 51 c0 91 -11 143 -31 149 -22 7 -59 -11
-59 -29 0 -18 -74 -123 -122 -173 -48 -49 -87 -68 -123 -59 -35 9 -41 46 -23
151 16 94 12 115 -22 115 -26 0 -36 -17 -55 -89 -21 -81 -60 -159 -119 -237
-105 -141 -181 -111 -193 76 -10 136 46 469 94 568 14 29 23 37 43 35 181 -14
210 -14 298 1 102 18 196 56 212 87 18 32 -16 36 -48 6 -15 -14 -40 -31 -57
-37 -75 -28 -390 -23 -402 6 -3 8 7 42 21 75 15 33 26 67 24 77 -6 30 -41 25
-74 -10z m1424 -506 c4 -44 -40 -139 -72 -153 -37 -17 -56 -5 -56 36 0 100
119 209 128 117z m366 -351 c29 -64 35 -150 14 -196 -18 -39 -63 -60 -98 -45
-79 33 -71 166 15 269 15 17 30 31 35 31 4 0 19 -26 34 -59z m-434 -94 c-28
-74 -91 -168 -143 -212 -49 -42 -61 -44 -52 -7 10 40 65 126 142 222 74 91 88
91 53 -3z"/>
<path d="M5855 1220 c-10 -16 5 -50 22 -50 8 0 13 -6 10 -12 -22 -59 -16 -76
15 -40 22 24 30 69 18 92 -11 21 -54 27 -65 10z"/>
<path d="M6021 1114 c-31 -26 -51 -76 -51 -129 1 -42 31 -105 85 -175 25 -32
45 -61 45 -65 0 -3 -19 -29 -41 -58 -23 -29 -50 -70 -60 -92 -35 -75 -20 -164
36 -215 22 -21 37 -25 85 -25 140 0 190 124 125 306 -39 108 -38 117 15 156
25 18 61 47 80 63 32 26 33 29 13 29 -12 1 -52 -21 -88 -49 -36 -27 -70 -50
-75 -50 -14 0 -59 59 -86 112 -30 58 -30 124 -1 142 14 9 21 7 32 -8 16 -21
30 -15 38 15 4 14 -2 29 -18 45 -34 34 -93 33 -134 -2z m148 -497 c25 -67 27
-114 7 -162 -30 -72 -99 -83 -136 -22 -38 62 -15 165 53 235 37 39 45 34 76
-51z"/>
<path d="M8461 1086 c-19 -22 -10 -60 15 -64 29 -4 61 34 48 56 -14 22 -48 27
-63 8z"/>
<path d="M9880 1086 c-18 -23 -8 -61 17 -64 29 -4 56 34 42 60 -12 22 -42 24
-59 4z"/>
</g>
</svg>
